<svg xmlns="http://www.w3.org/2000/svg" width="100" height="100" viewBox="0 0 100 100"><path fill="#3DB39E" d="M50 0c27.614 0 50 22.386 50 50s-22.387 50-50 50c-27.615 0-50-22.386-50-50s22.385-50 50-50z"/><path fill="#fff" d="M78.996 43.505c0-14.638-11.875-26.505-26.523-26.505-12.5 0-22.973 8.642-25.779 20.271l-.014.018-.02.126c-.178.754-.326 1.52-.437 2.297-.246 1.105-.575 2.311-.951 2.961-2.043 3.54-5.641 9.771-5.641 9.771-.646 1.119-.263 2.55.856 3.195l5.803 3.351v11.774c0 1.227.995 2.221 2.222 2.221h10.698v12.757c0 1.247.998 2.259 2.228 2.259l23.391-8.142c1.23 0 2.229-1.011 2.229-2.259v-11.959c7.19-4.742 11.938-12.883 11.938-22.136z"/><path fill="#415F6F" d="M55.973 32.719c.041-.448.043-.893.009-1.332l-1.303-.359-.378-1.447.96-.945c-.188-.404-.409-.792-.66-1.16l-1.305.338-1.051-1.065.358-1.301c-.361-.253-.745-.48-1.15-.674l-.962.946-1.443-.398-.341-1.306-.099-.009c-.415-.033-.828-.033-1.234-.002l-.358 1.301-1.447.376-.948-.96c-.404.187-.792.407-1.16.658l.34 1.304-1.064 1.048-1.303-.359c-.253.36-.48.744-.674 1.149l.949.962-.396 1.44-1.307.339c-.041.448-.042.893-.009 1.332l1.302.359.378 1.447-.96.945c.188.404.408.792.66 1.16l1.305-.339 1.051 1.065-.358 1.301c.36.254.745.48 1.151.675l.961-.947 1.442.398.341 1.306.099.009c.415.033.828.033 1.235.002l.358-1.301 1.448-.375.947.959c.404-.187.793-.406 1.16-.657l-.34-1.304 1.064-1.049 1.302.359c.254-.359.479-.743.675-1.149l-.949-.961.396-1.441 1.308-.338zm-6.968 3.077c-2.105.564-4.269-.685-4.833-2.791-.564-2.105.686-4.269 2.791-4.833s4.27.685 4.833 2.79-.685 4.27-2.791 4.834z"/><path fill="#E2574C" d="M71.404 44.756l1.596-.535c.013-.557-.021-1.113-.101-1.664l-1.649-.336-.592-1.773 1.117-1.264c-.264-.483-.569-.948-.918-1.39l-1.598.535-1.398-1.239.336-1.654c-.479-.293-.978-.541-1.488-.745l-1.117 1.264-1.83-.373-.533-1.598c-.557-.012-1.111.021-1.662.101l-.336 1.651-1.771.592-1.262-1.119c-.482.264-.947.57-1.388.919l.534 1.6-1.238 1.399-1.65-.336c-.293.48-.541.979-.744 1.49l1.262 1.12-.374 1.832-1.596.534c-.012.557.021 1.113.102 1.664l1.648.337.592 1.772-1.117 1.264c.264.484.57.949.918 1.391l1.599-.535 1.397 1.239-.336 1.653c.479.293.978.541 1.488.744l1.117-1.264 1.83.374.533 1.598c.556.013 1.111-.021 1.662-.101l.336-1.651 1.771-.593 1.262 1.119c.482-.265.947-.57 1.389-.92l-.535-1.6 1.238-1.4 1.651.337c.292-.479.54-.979.743-1.491l-1.262-1.118.374-1.83zm-8.404 4.244c-2.762 0-5-2.238-5-5s2.238-5 5-5 5 2.238 5 5-2.238 5-5 5z"/><path fill="#668292" d="M51.811 50.771c.097-.435.158-.878.182-1.322l-1.24-.527-.186-1.485 1.075-.814c-.132-.421-.298-.834-.503-1.236l-1.337.164-.902-1.197.524-1.243-.073-.067c-.309-.279-.636-.531-.978-.754l-1.075.812-1.376-.584-.167-1.34c-.434-.098-.875-.16-1.32-.185l-.523 1.241-1.482.184-.814-1.08c-.42.131-.832.298-1.233.501l.167 1.341-1.19.902-1.242-.528c-.305.33-.577.683-.817 1.052l.814 1.079-.58 1.378-1.336.164c-.097.436-.158.878-.182 1.323l1.24.526.186 1.486-1.075.814c.131.42.298.834.502 1.236l1.337-.165.902 1.195-.524 1.245.073.066c.309.279.636.53.978.754l1.075-.813 1.376.585.167 1.339c.434.099.875.161 1.32.186l.522-1.242 1.482-.183.814 1.079c.419-.13.833-.297 1.233-.501l-.167-1.341 1.19-.901 1.242.528c.305-.331.577-.683.818-1.052l-.815-1.079.581-1.378 1.337-.163zm-3.948-.736c-.572 2.135-2.765 3.4-4.899 2.828-2.134-.571-3.4-2.765-2.829-4.898s2.765-3.4 4.899-2.828c2.134.571 3.401 2.764 2.829 4.898z"/></svg>