<svg xmlns="http://www.w3.org/2000/svg" width="100" height="100" viewBox="0 0 100 100"><circle fill="#324D5B" cx="49.999" cy="50" r="50"/><path fill="#CCD0D2" d="M59 67.999h-18.001v13h2v1c0 2.209 1.791 4 4 4h6.001c2.209 0 4-1.791 4-4v-1h2v-13z"/><path fill="#E4E7E7" d="M41.499 71.999h17.001c.828 0 1.5-.672 1.5-1.5s-.672-1.5-1.5-1.5h-17.001c-.828 0-1.5.672-1.5 1.5s.672 1.5 1.5 1.5zm17.001 2h-17.001c-.828 0-1.5.672-1.5 1.5s.672 1.5 1.5 1.5h17.001c.828 0 1.5-.672 1.5-1.5s-.672-1.5-1.5-1.5zm0 5h-17.001c-.828 0-1.5.672-1.5 1.5s.672 1.5 1.5 1.5h17.001c.828 0 1.5-.672 1.5-1.5s-.672-1.5-1.5-1.5z"/><path fill="#EFC75E" d="M67.203 36.118c-3.975-8.295-12.096-11.109-17.183-11.109-5.088 0-13.229 2.814-17.201 11.108s-.773 15.985 3.104 21.112 4.82 7.391 5.062 8.646c.062 1.288.008.78.008 2.136 0 .693 1.027.966 1.027.966l15.999.005s.975-.225.975-.971l-.002-2.167c.283-1.248 1.211-3.488 5.088-8.615s7.096-12.817 3.123-21.111z"/><path fill="#4B636F" d="M50.5 11.999c-.829 0-1.501.672-1.501 1.5v5c0 .828.672 1.5 1.501 1.5.828 0 1.5-.672 1.5-1.5v-5c0-.828-.672-1.5-1.5-1.5zm-24.501 32.5c0-.828-.672-1.5-1.5-1.5h-5c-.828 0-1.5.672-1.5 1.5s.672 1.5 1.5 1.5h5c.828 0 1.5-.672 1.5-1.5zm54.503-1.5h-5.004c-.828 0-1.498.671-1.498 1.499v.003c0 .827.67 1.498 1.498 1.498h5.004c.826 0 1.498-.671 1.498-1.498v-.003c0-.828-.672-1.499-1.498-1.499zm-13.184-25.816c-.652-.396-1.486-.161-1.863.526l-2.273 4.145c-.375.687-.152 1.565.5 1.962s1.486.161 1.863-.526l2.271-4.145c.377-.687.155-1.566-.498-1.962zm6.787 15.611l4.152-2.309c.688-.383.939-1.203.562-1.834-.375-.63-1.238-.83-1.928-.448l-4.15 2.31c-.689.383-.941 1.203-.564 1.834.378.63 1.241.83 1.928.447zm-39.561-15.085c-.377-.688-1.211-.923-1.863-.526s-.875 1.275-.498 1.962l2.271 4.145c.377.688 1.211.923 1.863.526s.877-1.275.5-1.962l-2.273-4.145zm-12.802 12.776l4.152 2.309c.688.383 1.551.183 1.928-.447.377-.631.125-1.451-.564-1.834l-4.152-2.31c-.687-.382-1.55-.182-1.926.448-.379.631-.127 1.452.562 1.834zm55.516 28.028l-4.152-2.31c-.688-.382-1.551-.182-1.928.448-.377.631-.125 1.451.564 1.834l4.15 2.31c.689.382 1.553.182 1.928-.448.377-.631.125-1.451-.562-1.834zm-50.364-2.31l-4.152 2.31c-.688.383-.94 1.203-.563 1.834.376.63 1.239.83 1.926.448l4.152-2.31c.689-.383.941-1.203.564-1.834-.377-.63-1.24-.83-1.927-.448z"/><path fill="#fff" d="M59 44.992h-6.1l3.684-6.993h-9.358l-4.227 12.023h5.83l-2.811 8.977 12.982-14.007z"/><path fill="#D7B354" d="M45.021 68.978s-1.027-.272-1.027-.966c0-1.355.055-.848-.008-2.136-.242-1.256-1.186-3.52-5.062-8.646s-7.076-12.818-3.104-21.112c3.604-7.522 10.628-10.528 15.701-11.024-.52-.051-1.026-.084-1.5-.084-5.088 0-13.229 2.814-17.201 11.108s-.773 15.985 3.104 21.112 4.82 7.391 5.062 8.646c.062 1.288.008.78.008 2.136 0 .693 1.027.966 1.027.966l15.999.005.004-.001-13.003-.004z"/></svg>