<svg xmlns="http://www.w3.org/2000/svg" width="100" height="100" viewBox="0 0 100 100"><path fill="#3DB39E" d="M50 0c-27.614 0-50 22.385-50 50 0 27.614 22.386 50 50 50s50-22.386 50-50c0-27.615-22.386-50-50-50z"/><path fill="#E1E5E7" d="M66.999 33.999c-.009-9.391-7.616-17-16.999-17s-16.99 7.609-16.999 17h-.001v33h.013c.137 9.28 7.684 17 16.987 17 9.386 0 16.995-7.61 17-17l-.001-33z"/><path fill="#B4B7B9" d="M50 27.812c-.915 0-1.656.741-1.656 1.656s.741 1.656 1.656 1.656 1.656-.741 1.656-1.656-.741-1.656-1.656-1.656zm0 9.968c-.915 0-1.656.749-1.656 1.672 0 .924.741 1.672 1.656 1.672s1.656-.748 1.656-1.672c0-.923-.741-1.672-1.656-1.672zm5-4.968c-.915 0-1.656.741-1.656 1.656s.741 1.656 1.656 1.656 1.656-.741 1.656-1.656-.741-1.656-1.656-1.656zm-10 0c-.915 0-1.656.741-1.656 1.656s.741 1.656 1.656 1.656 1.656-.741 1.656-1.656-.741-1.656-1.656-1.656zm15-1.688c.915 0 1.656-.741 1.656-1.656s-.741-1.656-1.656-1.656-1.656.741-1.656 1.656.741 1.656 1.656 1.656zm0 6.656c-.915 0-1.656.749-1.656 1.672 0 .924.741 1.672 1.656 1.672s1.656-.748 1.656-1.672c0-.923-.741-1.672-1.656-1.672zm-20-9.968c-.915 0-1.656.741-1.656 1.656s.741 1.656 1.656 1.656 1.656-.741 1.656-1.656-.741-1.656-1.656-1.656zm0 9.968c-.915 0-1.656.749-1.656 1.672 0 .924.741 1.672 1.656 1.672s1.656-.748 1.656-1.672c0-.923-.741-1.672-1.656-1.672zm15-14.968c-.915 0-1.656.749-1.656 1.672 0 .924.741 1.672 1.656 1.672s1.656-.748 1.656-1.672c0-.923-.741-1.672-1.656-1.672zm-10 0c-.915 0-1.656.749-1.656 1.672 0 .924.741 1.672 1.656 1.672s1.656-.748 1.656-1.672c0-.923-.741-1.672-1.656-1.672zm10 19.968c-.915 0-1.656.741-1.656 1.656s.741 1.656 1.656 1.656 1.656-.741 1.656-1.656-.741-1.656-1.656-1.656zm-10 0c-.915 0-1.656.741-1.656 1.656s.741 1.656 1.656 1.656 1.656-.741 1.656-1.656-.741-1.656-1.656-1.656z"/><path fill="#CACED0" d="M40.013 66.999h-.013v-33h.001c.008-8.189 5.796-15.021 13.499-16.635-1.13-.237-2.3-.365-3.5-.365-9.383 0-16.99 7.609-16.999 17h-.001v33h.013c.137 9.28 7.684 17 16.987 17 1.209 0 2.387-.131 3.524-.371-7.638-1.636-13.392-8.537-13.511-16.629z"/><path fill="#417283" d="M33 53.999v13h.013c.137 9.28 7.684 17 16.987 17 9.386 0 16.995-7.61 17-17v-13h-34z"/><g fill="#A4A6A8"><path d="M38.344 29.468c0 .915.741 1.656 1.656 1.656l.254-.025c.174-1.006.432-1.983.774-2.92-.283-.227-.638-.367-1.028-.367-.915 0-1.656.741-1.656 1.656zM40 41.124v-3.344c-.915 0-1.656.749-1.656 1.672 0 .924.741 1.672 1.656 1.672z"/></g><path fill="#3A6676" d="M33 53.999v13h.013c.137 9.28 7.684 17 16.987 17 1.209 0 2.387-.131 3.524-.371-7.638-1.636-13.392-8.537-13.512-16.629h-.012v-13h-7z"/><path fill="#EFC75E" d="M74 47.999c-.553 0-1 .447-1 1v2h-5v-1c0-.553-.447-1-1-1h-34c-.553 0-1 .447-1 1v1h-5v-2c0-.553-.447-1-1-1s-1 .447-1 1v7c0 .553.447 1 1 1s1-.447 1-1v-2h.987v14.41c0 10.725 9.249 19.531 20.03 20.505l-.017.085v10.95c.665.026 1.329.051 2 .051s1.336-.024 2-.051v-10.95l-.018-.086c10.777-.978 20.021-9.782 20.021-20.504v-14.41h.997v2c0 .553.447 1 1 1s1-.447 1-1v-7c0-.553-.447-1-1-1zm-4.986 20.202c0 10.111-8.809 17.81-19.019 17.81s-19.019-7.698-19.019-17.81v-14.202h1.024v1c0 .553.447 1 1 1h34c.553 0 1-.447 1-1v-1h1.014v14.202z"/><path fill="#D7B354" d="M38 54.999v-5c0-.553.447-1 1-1h-6c-.553 0-1 .447-1 1v5c0 .553.447 1 1 1h6c-.553 0-1-.447-1-1z"/><g fill="#D7B354"><path d="M28 53.999h3v3h-3zM69 53.999h3v3h-3z"/></g></svg>